<?xml version="1.0" encoding="UTF-8" standalone="no"?>
<!DOCTYPE svg PUBLIC "-//W3C//DTD SVG 1.1//EN" "http://www.w3.org/Graphics/SVG/1.1/DTD/svg11.dtd">
<svg width="100%" height="100%" viewBox="0 0 800 600" version="1.1" xmlns="http://www.w3.org/2000/svg" xmlns:xlink="http://www.w3.org/1999/xlink" xml:space="preserve" xmlns:serif="http://www.serif.com/" style="fill-rule:evenodd;clip-rule:evenodd;stroke-linejoin:round;stroke-miterlimit:2;">
    <ellipse cx="403.932" cy="315.368" rx="205.805" ry="204.088" style="fill:rgb(168,234,239);"/>
    <path d="M218.96,229.166C224.62,236.675 238.071,240.585 239.918,251.277C241.91,262.801 238.882,262.414 238.181,274.34C237.985,277.675 240.727,283.317 238.852,286.457C235.254,292.484 227.825,306.773 228.152,313.403C228.286,316.124 230.919,317.433 232.412,319.414C235.169,323.071 235.633,328.654 238.034,332.603C241.091,337.629 246.553,342.049 249.098,347.399C254.625,359.017 251.107,360.868 261.747,371.637C263.819,373.734 266.869,376.924 267.582,379.82C267.726,380.404 267.107,382.559 268.356,381.97C273.154,379.708 272.039,372.509 273.145,368.33C273.787,365.905 266.933,348.92 268.195,342.371C268.865,338.894 273.183,335.423 272.305,331.542C270.325,322.793 260.007,322.607 265.828,313.502C271.472,304.676 284.311,311.538 286.382,310.489C293.395,306.938 294.262,293.023 301.614,290.027C310.44,286.432 322.387,299.492 332.593,294.369C333.451,293.938 333.364,293.088 332.942,292.325C329.513,286.128 321.926,278.218 324.961,270.369C329.133,259.577 338.065,269.97 342.868,265.107C347.731,260.184 335.258,255.123 336.149,251.918C337.839,245.847 344.401,234.901 342.12,227.886C338.404,216.456 329.724,221.88 320.512,222.8C317.715,223.079 314.87,222.943 312.099,221.794C309.173,220.581 313.926,213.486 315.232,212.697C317.578,211.281 330.84,208.844 328.41,205.428C322.583,197.234 298.826,206.279 296.936,197.061C295.634,190.718 307.63,193.774 308.304,190.276C308.49,189.312 299.601,186.62 301.163,185.934C304.478,184.48 326.282,180.445 324.223,173.186C319.044,154.925 286.576,169.208 283.916,163.887C283.849,163.754 271.652,159.23 271.583,159.976" style="fill:rgb(96,190,111);"/>
    <path d="M271.857,159.885C270.972,159.885 269.968,160.821 269.216,161.334C267.085,162.786 265.111,165.497 263.327,166.985C259.381,170.276 255.854,174.064 252.582,177.63C247.798,182.845 242.883,188.649 238.881,194.473C236.408,198.071 233.698,201.833 231.094,205.334C227.37,210.341 225.04,215.449 221.611,220.665C220.497,222.358 219.322,224.502 218.961,226.513C218.949,226.579 218.435,229.601 219.054,229.1" style="fill:rgb(96,190,111);"/>
    <path d="M265.886,401.745C265.886,394.36 270.255,391.521 272.756,386.171C273.696,384.16 272.537,381.052 274.209,379.342C276.064,377.445 282.371,376.825 285.005,375.258C289.839,372.381 298.979,368.11 304.419,372.19C307.008,374.131 305.317,378.409 307.066,380.628C307.901,381.687 308.858,382.239 309.875,382.573C312.258,383.358 314.971,382.948 317.214,385.082C320.73,388.426 320.871,394.377 325.036,397.493C329.769,401.035 338.74,399.725 344.268,401.634C346.538,402.418 350.389,402.924 351.543,405.434C353.476,409.636 356.087,415.083 352.912,419.691C351.467,421.788 348.763,422.95 348.412,425.739C347.612,432.098 344.721,437.422 343.185,443.473C342.272,447.07 342.288,451.947 340.314,455.036C339.302,456.619 335.4,457.652 333.841,459.035C330.734,461.792 327.482,472.201 328.159,476.366C329.416,484.096 336.135,491.025 343.843,493.595C344.157,493.7 347.284,499.199 348.603,500.389C351.271,502.798 354.38,504.86 357.168,507.17C357.802,507.696 359.779,508.732 360.007,509.642C360.137,510.163 361.172,511.142 360.635,511.126C353.513,510.916 347.192,505.132 341.117,502.503C337.829,501.081 334.457,499.603 330.952,498.804C330.875,498.786 325.275,498.448 325.358,497.993C325.971,494.639 322.204,492.871 319.566,491.383C315.413,489.041 310.905,487.613 306.782,485.489C304.536,484.332 301.875,478.615 300.615,476.58C298.728,473.533 296.336,469.477 295.076,466.307C294.449,464.73 296.058,462.791 295.177,460.855C294,458.268 291.197,456.813 289.942,454.368C288.013,450.611 289.278,446.617 285.817,443.083C280.643,437.8 275.572,439.692 268.779,438.601C262.846,437.648 252.185,433.346 249.046,427.732C245.347,421.114 247.265,413.25 250.62,407.316C251.268,406.169 251.005,404.188 252.174,403.374C255.182,401.278 259.044,400.36 262.588,400.889C263.234,400.985 267.374,400.302 266.712,399.961" style="fill:rgb(96,190,111);"/>
    <path d="M464.596,308.954C464.596,308.954 457.042,314.708 454.065,318.446C453.95,318.591 448.885,331.799 448.827,332.221C448.574,334.077 449.94,335.72 449.851,337.642C449.666,341.636 448.122,345.902 450.474,349.72C452.759,353.431 460.452,352.291 464.389,353.061C473.978,354.936 492.96,353.903 499.81,362.45C508.952,373.858 497.829,394.756 498.446,407.284C499.126,421.099 511.319,436.35 517.215,448.142C518.024,449.758 520.426,446.476 522.084,445.757C524.864,444.552 526.41,442.714 528.231,440.307C537,428.714 546.216,419.55 553.267,406.839C558.301,397.763 557.805,388.577 560.02,378.607C560.973,374.319 563.185,370.281 563.51,365.859C563.745,362.66 563.358,359.467 563.215,356.235C563.12,354.093 563.134,351.934 563.507,349.744C565.307,339.202 575.395,331.508 579.766,322.425C583.396,314.882 587.039,304.824 583.206,296.567C577.202,283.636 571.816,298.078 556.966,294.56C549.561,292.805 544.737,283.292 537.888,279.471C531.939,276.153 525.223,280.362 519.362,280.934C515.424,281.318 506.615,277.679 503.899,279.665C501.573,281.365 498.822,282.357 496.114,283.275C487.664,286.137 482.606,295.405 475.528,300.546C474.144,301.552 470.007,305.753 468.431,306.057C466.81,306.369 464.512,308.954 464.596,308.954Z" style="fill:rgb(96,190,111);"/>
    <path d="M554.809,425.326C555.65,421.014 555.578,417.856 558.39,413.978C559.061,413.051 563.715,406.352 563.929,405.918C565.234,403.266 563.345,399.209 567.177,397.735C570.632,396.406 570.086,403.006 570.086,404.682C570.086,408.775 569.36,418.249 567.52,421.91C566.798,423.346 564.437,423.329 563.934,424.276C562.934,426.158 561.381,426.314 559.719,427.239C558.717,427.798 557.357,430.131 556.832,429.111C556.247,427.976 555.103,426.58 555.212,425.687C555.319,424.803 557.405,425.267 556.675,424.161" style="fill:rgb(96,190,111);"/>
    <path d="M485.085,283.144C479.756,288.16 465.079,289.749 458.409,285.731C457.052,284.913 458.133,278.039 455.873,276.02C449.653,270.462 442.265,268.05 443.846,257.423C443.952,256.711 443.615,253.057 444.075,252.569C446.78,249.694 454.995,250.902 458.106,250.474C461.659,249.985 458.744,246.163 461.366,245.178C463.513,244.371 466.551,245.506 469.272,246.056C470.214,246.247 471.118,246.367 471.933,246.313C473.53,246.207 479.416,241.57 479.26,239.725C479.043,237.145 472.853,235.215 471.091,234.828C469.624,234.506 467.226,235.405 466.021,234.679C462.861,232.776 458.296,227.517 457.468,227.015C453.418,224.559 442.607,220.276 449.469,214.012C453.671,210.176 465.186,213.196 470.229,210.29C475.417,207.301 472.796,199.965 476.014,197.752C477.15,196.971 483.525,201.039 484.397,201.474C485.63,202.09 489.759,205.045 490.963,205.026C491.2,205.022 491.432,204.949 491.668,204.928C494.316,204.682 505.366,201.095 505.952,199.887C508.589,194.449 498.194,191.938 496.381,187.501C494.902,183.879 499.48,183.626 499.085,180.559C498.432,175.489 493.459,174.76 490.612,171.425C489.22,169.794 494.237,169.158 491.343,166.594C490.123,165.513 485.328,161.736 483.365,162.372C471.173,166.327 483.394,182.528 481.501,189.652C480.552,193.226 468.85,193.835 466.236,193.299C465.385,193.125 465.788,189.462 463.136,189.008C462.559,188.91 459.152,188.893 458.795,189.412C458.413,189.967 457.575,192.534 456.405,191.949C454.055,190.774 460.036,180.223 460.278,178.823C463.17,162.119 462.052,159.402 476.612,151.124C477.433,150.658 477.444,149.036 477.992,148.745C485.487,144.763 494.804,161.355 501.97,159.637C502.563,159.494 503.139,159.229 503.716,159.033C506.423,158.114 503.787,156.501 505.622,154.652C507.33,152.932 511.046,153.079 512.404,150.957C512.879,150.215 510.383,143.831 512.489,142.713C512.641,142.632 519.208,146.531 519.701,146.777C520.294,147.073 542.846,166.289 543.842,165.507" style="fill:rgb(96,190,111);"/>
    <g transform="matrix(0.983959,-0.178396,0.124252,0.685327,-16.476,144.917)">
        <path d="M441.671,208.083C442.9,207.387 444.029,206.249 445.438,205.922C447.825,205.369 451.109,205.203 452.706,202.92C453.466,201.835 451.849,201.043 451.849,200.015C451.849,199.002 454.207,196.972 453.966,196.49C453.082,194.723 450.196,194.447 449.294,192.05C448.347,189.534 449.29,186.575 448.764,183.963C448.458,182.447 447.099,181.275 446.542,179.845C445.591,177.398 445.883,174.537 446.076,171.961C446.159,170.865 448.32,169.02 447.231,168.872C446.009,168.706 443.051,168.932 442.356,170.115C441.707,171.219 442.146,173.287 441.496,174.623C440.777,176.097 438.332,178.212 437.948,179.401C437.685,180.217 438.196,181.204 438.005,182.074C437.395,184.849 436.168,186.963 435.889,189.97C435.7,192.004 438.369,193.372 437.947,194.98C436.888,199.013 435.747,202.891 436.298,207.043C436.584,209.196 442.509,209.522 442.509,208.094" style="fill:rgb(96,190,111);"/>
    </g>
    <g transform="matrix(0.964005,-0.265883,0.214276,0.776895,-26.9342,161.727)">
        <path d="M433.889,197.355C435.014,197.909 434.29,200.863 433.927,201.626C433.396,202.744 430.581,207.879 429.502,208.512C428.676,208.995 426.915,208.592 426.013,208.567C425.98,208.566 423.688,208.731 423.669,208.712C419.268,204.311 424.243,203.008 426.776,200.138C428.604,198.067 427.212,196.819 429.956,195.789C430.737,195.495 432.854,197.002 434.021,197.002" style="fill:rgb(96,190,111);"/>
    </g>
    <path d="M486.746,221.243C490.908,219.828 498.125,279.129 500.209,274.83C503.26,268.536 493.115,263.493 503.049,260.504C515.198,256.849 512.174,265.517 513.707,269.7C514.301,271.32 519.441,273.599 520.909,271.931C523.036,269.513 520.691,268.438 521.09,265.949C521.254,264.922 523.315,265.538 523.514,264.503C523.962,262.182 518.382,258.224 517.184,255.458C516.61,254.131 516.579,248.783 518.652,248.512C534.351,246.459 523.766,260.614 535.619,269.437C539.742,272.507 538.872,266.1 541.489,266.973C544.068,267.832 543.77,276.046 545.793,276.826C548.741,277.962 550.181,282.029 554.193,283.137C557.03,283.921 560.358,285.793 562.321,287.755C562.881,288.316 568.048,287.583 569.246,287.932C570.593,288.324 571.567,286.667 574.721,287.579C576.62,288.128 581.326,282.482 582.079,283.384C582.743,284.178 580.648,283.473 582.079,283.384C583.319,283.306 584.191,279.597 584.299,279.109C585.108,275.435 587.176,279.722 587.486,276.09C587.74,273.106 593.332,272.597 593.54,269.652C593.63,268.382 596.05,265.661 595.021,264.492C592.613,261.757 587.089,264.159 583.906,263.479C582.394,263.156 581.992,257.139 582.555,255.378C583.669,251.897 588.692,255.178 590.46,255.53C594.19,256.274 598.166,257.409 601.36,259.039C606.998,261.917 549.184,172.154 545.485,167.156C545.363,166.99 540.182,162.163 540.563,163.44" style="fill:rgb(96,190,111);"/>
    <path d="M601.631,258.94C601.631,257.342 600.924,256.077 600.564,254.758C599.127,249.5 597.118,244.563 595.113,239.464C594.983,239.134 594.502,238.325 594.393,237.988C593.203,234.281 591.852,230.979 590.037,227.479C586.173,220.026 582.465,212.73 577.923,205.802C576.351,203.405 574.679,201.051 572.867,198.751C571.976,197.62 571.287,196.567 570.392,195.443C569.313,194.089 568.366,192.564 567.289,191.215C566.223,189.879 565.154,188.362 564.099,187.027C559.62,181.357 554.578,176.318 549.488,171.228C548.783,170.523 547.113,168.282 544.993,166.945C543.63,166.085 542.567,165.236 542.567,164.43" style="fill:rgb(96,190,111);"/>
    <path d="M544.012,166.613C543.371,164.387 538.652,161.64 537.098,160.239C532.838,156.394 528.233,153.176 523.403,149.934C522.181,149.114 520.908,147.958 519.748,147.108C517.803,145.681 515.766,145.138 513.416,144.233C513.044,144.09 512.221,143.274 511.941,143.274" style="fill:rgb(96,190,111);"/>
    <path d="M485.154,283.192C486.238,281.38 488.012,280.389 489.519,279.459C490.264,279 489.593,277.123 489.896,276.447C490.149,275.883 491.051,276.24 491.461,275.925C492.242,275.324 492.37,274.346 493.581,273.934C496.053,273.093 499.004,276.608 500.874,274.621C501.13,274.35 500.634,273.057 500.541,272.837C499.929,271.379 498.653,270.473 498.226,268.083C497.674,264.991 499.236,243.9 498.278,239.588C489.327,199.303 478.787,263.511 476.058,272.915C475.309,275.498 474.308,280.167 474.662,282.626C474.78,283.447 475.065,284.704 475.611,285.358C475.783,285.564 476.361,285.999 476.361,286.294" style="fill:rgb(96,190,111);"/>
    <path d="M344.216,211.569C344.216,206.102 345.681,193.173 345.27,189.896C344.914,187.07 342.716,184.046 341.906,181.241C340.741,177.204 341.002,172.96 339.643,168.966C338.19,164.696 328.747,158.147 328.938,155.961C329.268,152.183 333.821,151.239 336.195,149.539C342.937,144.712 358.163,144.014 366.607,147.103C369.513,148.166 375.17,150.214 375.572,153.863C375.932,157.138 372.461,160.118 370.982,162.655C368.678,166.61 367.501,171.252 365.646,175.43C363.375,180.546 366.795,185.389 365.753,190.62C364.128,198.784 357.061,203.539 354.037,210.78C353.232,212.707 352.879,218.723 351.406,220.11C351.133,220.367 348.62,219.541 348.238,219.489C343.752,218.879 344.914,212.201 344.914,208.875" style="fill:rgb(96,190,111);"/>
    <path d="M374.974,180.327C374.35,181.502 381.322,180.998 382.278,180.745C386.662,179.586 396.357,179.835 392.445,171.585C391.894,170.423 390.648,169.836 389.068,169.654C384.848,169.169 378.25,171.572 376.155,173.63C374.015,175.734 374.975,180.746 375.011,180.671" style="fill:rgb(96,190,111);"/>
    <path d="M275.884,330.341C279.264,335.77 285.29,343.393 290.878,346.01C292.375,346.711 299.194,349.36 299.622,346.252C300.13,342.569 292.658,340.959 290.518,339.934C289.792,339.587 289.686,336.665 288.892,335.761C287.631,334.326 287.267,336.325 286.47,335.731C282.476,332.75 281.991,329.604 276.903,329.604" style="fill:rgb(96,190,111);"/>
    <path d="M542.185,247.834C540.956,247.834 538.536,247.23 537.424,246.56C529.612,241.854 542.939,243.019 545.141,242.905C545.38,242.893 546.956,243.254 547.098,243.446C548.723,245.646 546.346,247.617 547.201,249.779C547.776,251.235 552.275,250.193 551.54,251.575C549.974,254.523 544.749,249.813 544.107,248.869C544.003,248.716 542.185,247.834 542.185,247.834Z" style="fill:rgb(168,234,239);"/>
    <g transform="matrix(0.993461,0,0,0.996563,3.70826,0.881752)">
        <path d="M558.331,239.612C558.331,239.612 560.059,243.323 561.34,245.414C562.398,247.14 560.069,250.111 560.63,252.225C561.442,255.282 563.125,252.984 564.511,254.369C564.843,254.701 565.422,256.692 565.848,256.496C569.3,254.912 564.891,242.837 562.806,240.752C562.449,240.395 558.331,238.148 558.331,239.612Z" style="fill:rgb(168,234,239);"/>
    </g>
</svg>
