<svg xmlns="http://www.w3.org/2000/svg" width="49.999" height="32.738" viewBox="0 0 49.999 32.738">
  <g id="BreatBritain" transform="translate(-75.61 -116.789)">
    <g id="Group_46" data-name="Group 46" transform="translate(66.004 108.25)">
      <path id="Path_66" data-name="Path 66" d="M59.605,16.682a8.138,8.138,0,0,0-8.134-8.134H17.74a8.138,8.138,0,0,0-8.134,8.134V33.109a8.138,8.138,0,0,0,8.134,8.134H51.471a8.138,8.138,0,0,0,8.134-8.134Z" fill="#92eef2" fill-rule="evenodd"/>
    </g>
    <g id="Group_51" data-name="Group 51" transform="translate(70.105 114.711)">
      <path id="Path_71" data-name="Path 71" d="M23.962,22.569,8.305,32.7a5.285,5.285,0,0,0,1.7,1.141L25.828,23.672l.013-1.1Z" transform="translate(0)" fill="#d66060" fill-rule="evenodd"/>
    </g>
    <g id="Group_52" data-name="Group 52" transform="matrix(-1, 0, 0, -1, 130.171, 152.399)">
      <path id="Path_72" data-name="Path 72" d="M23.021,23.563,8.04,34.021a5.039,5.039,0,0,0,1.816,1.024L24.806,24.7l.012-1.14Z" fill="#d66060" fill-rule="evenodd"/>
    </g>
    <g id="Group_53" data-name="Group 53" transform="matrix(1, 0, 0, 1, 71.122, 152.226)">
      <path id="Path_73" data-name="Path 73" d="M23.006-23.226,7.947-33.8a2.3,2.3,0,0,1,.866-.672,6.675,6.675,0,0,1,.922-.376L24.8-24.378l.012,1.152Z" fill="#d66060" fill-rule="evenodd"/>
    </g>
    <g id="Group_54" data-name="Group 54" transform="matrix(-1, 0, 0, -1, 129.791, 113.665)">
      <path id="Path_74" data-name="Path 74" d="M22.665-23.526,7.646-34.251a5.248,5.248,0,0,1,1.964-.988L24.43-24.687l.012,1.161Z" fill="#d66060" fill-rule="evenodd"/>
    </g>
    <g id="Group_55" data-name="Group 55" transform="translate(70.917 109.186)">
      <path id="Path_75" data-name="Path 75" d="M10.027,8.26l14.8,10.326-.072-2.712L13.03,7.625a7.431,7.431,0,0,0-3.112.564" fill="#fff" fill-rule="evenodd"/>
    </g>
    <g id="Group_56" data-name="Group 56" transform="translate(130.049 109.134) rotate(180)">
      <path id="Path_76" data-name="Path 76" d="M9.711-8.212l15-10.374,0,1.3L11.3-7.783A5.142,5.142,0,0,1,9.9-8.189" fill="#fff" fill-rule="evenodd"/>
    </g>
    <g id="Group_57" data-name="Group 57" transform="matrix(-1, -0.003, 0.003, -1, 129.565, 157.307)">
      <path id="Path_77" data-name="Path 77" d="M9.355,8.379,24.233,18.935l.021-2.526L12.6,7.767A6.8,6.8,0,0,0,9.578,8.2" transform="translate(0)" fill="#fff" fill-rule="evenodd"/>
    </g>
    <g id="Group_58" data-name="Group 58" transform="matrix(1, 0.003, -0.003, 1, 71.493, 157.119)">
      <path id="Path_78" data-name="Path 78" d="M8.61-8.575,24.3-18.833l.019,1.345L9.905-8.052a4.219,4.219,0,0,1-1.3-.523" transform="translate(0)" fill="#fff" fill-rule="evenodd"/>
    </g>
    <g id="Group_59" data-name="Group 59" transform="translate(69.779 107.791)">
      <path id="Path_79" data-name="Path 79" d="M55.829,27.541,33.36,27.6,33.29,41.665l2.336.025.059-12.2,20.135.136Z" fill="#fff" fill-rule="evenodd"/>
    </g>
    <g id="Group_60" data-name="Group 60" transform="matrix(-1, 0, 0, -1, 131.185, 158.126)">
      <path id="Path_80" data-name="Path 80" d="M55.557,27.307l-22.335.052-.063,13.957,2.33,0,.047-12.076,20.036.143Z" fill="#fff" fill-rule="evenodd"/>
    </g>
    <g id="Group_61" data-name="Group 61" transform="matrix(1, 0, 0, 1, 69.484, 157.918)">
      <path id="Path_81" data-name="Path 81" d="M56.09-27.169l-22.573-.054-.03-13.908,2.306,0,.059,12.035,20.229-.135Z" fill="#fff" fill-rule="evenodd"/>
    </g>
    <g id="Group_62" data-name="Group 62" transform="matrix(-1, -0.001, 0.001, -1, 131.376, 108.285)">
      <path id="Path_82" data-name="Path 82" d="M55.739-27.031l-22.4-.054-.1-14.018,2.332-.025.059,12.035,20.1-.135Z" fill="#fff" fill-rule="evenodd"/>
    </g>
    <g id="Group_63" data-name="Group 63" transform="translate(69.546 107.791)">
      <path id="Path_83" data-name="Path 83" d="M37.574,21.037l15.009-10.5a8.367,8.367,0,0,1,1.644,1.547L40.914,21.046Z" transform="translate(0 0)" fill="#fff" fill-rule="evenodd"/>
    </g>
    <g id="Group_64" data-name="Group 64" transform="translate(69.779 107.791)">
      <path id="Path_84" data-name="Path 84" d="M9.255,10.586l15.2,10.631L22.479,21.2l-14.23-9.79A4.31,4.31,0,0,1,9.255,10.586Z" transform="translate(0)" fill="#fff" fill-rule="evenodd"/>
    </g>
    <g id="Group_65" data-name="Group 65" transform="translate(69.641 107.696)">
      <path id="Path_85" data-name="Path 85" d="M37.479,29.5,52.493,40.27a4.04,4.04,0,0,0,1.04-.941l-14.049-9.8Z" transform="translate(0 0)" fill="#fff" fill-rule="evenodd"/>
    </g>
    <g id="Group_66" data-name="Group 66" transform="translate(69.779 107.667)">
      <path id="Path_86" data-name="Path 86" d="M8.634,39.756,24.315,29.612H20.093L7.051,37.847A7.812,7.812,0,0,0,8.634,39.756Z" fill="#fff" fill-rule="evenodd"/>
    </g>
    <g id="Group_67" data-name="Group 67" transform="translate(69.779 107.791)">
      <path id="Path_87" data-name="Path 87" d="M28.271,9.024h4.96l-.016,13.913,22.592-.024V27.5l-22.431.153-.067,14.029-4.961,0-.082-14.034L5.854,27.515,5.84,22.986,28.193,22.9Z" fill="#d66060" fill-rule="evenodd"/>
    </g>
  </g>
</svg>
