<?xml version="1.0" encoding="UTF-8" standalone="no"?>
<!DOCTYPE svg PUBLIC "-//W3C//DTD SVG 1.1//EN" "http://www.w3.org/Graphics/SVG/1.1/DTD/svg11.dtd">
<svg width="100%" height="100%" preserveAspectRatio="none" viewBox="0 0 1920 1080" version="1.1" xmlns="http://www.w3.org/2000/svg" xmlns:xlink="http://www.w3.org/1999/xlink" xml:space="preserve" xmlns:serif="http://www.serif.com/" style="fill-rule:evenodd;clip-rule:evenodd;stroke-linejoin:round;stroke-miterlimit:2;">
    <g transform="matrix(1,0,0,1,-42.3475,8.78254)">
        <path d="M836.318,-62.295C836.318,-62.295 915.731,375.778 1058.02,222.773C1135.37,139.588 1072.58,344.575 1036.98,383.38C1010.54,412.193 1013.18,395.4 1004.96,391.693C991.817,385.764 978.017,386.62 959.389,405.599C958.202,406.809 921.976,435.023 943.001,459.663C955.959,474.849 963.39,478.331 1012.76,479.725C1043.74,480.6 1114.71,503.062 1117.12,538.123C1119.61,574.483 1045.59,576.761 1066.7,625.116C1117.05,740.429 1094.96,669.636 1053.57,679.929C1029.54,685.903 1028.36,687.818 1023.66,691.065C1020.74,693.08 1015.61,694.205 1005.41,701.379C1002.3,703.568 998.587,706.109 994.113,709.067C978.023,719.708 977.577,747.826 981.7,782.13C991.014,859.613 1097.22,833.548 1084.59,977.449C1077.88,1053.83 1066.03,1010.29 1035.22,1003.59C846.84,962.597 870.045,1288.33 962.2,1301.61C1030.57,1311.46 807.945,1316.85 1190.02,1326.14C1238.86,1327.32 1077.43,1327.15 1230.17,1286.71C1313.06,1264.76 1418.34,1200.35 1524.48,1293.6C1630.63,1386.85 1633.67,1090.19 1641.86,1115.62C1650.06,1141.05 1856.32,1113.64 1856.32,1113.64L1975.14,1080.53L1978.77,308.758L1959.83,-53.826L836.318,-62.295Z" style="fill:rgb(127,139,251);"/>
    </g>
    <g transform="matrix(1,0,0,1,98.892,-10.2359)">
        <path d="M836.318,-62.295C836.318,-62.295 915.731,375.778 1058.02,222.773C1135.37,139.588 1072.58,344.575 1036.98,383.38C1010.54,412.193 1013.18,395.4 1004.96,391.693C991.817,385.764 978.017,386.62 959.389,405.599C958.202,406.809 921.976,435.023 943.001,459.663C955.959,474.849 963.39,478.331 1012.76,479.725C1043.74,480.6 1114.71,503.062 1117.12,538.123C1119.61,574.483 1045.59,576.761 1066.7,625.116C1117.05,740.429 1094.96,669.636 1053.57,679.929C1029.54,685.903 1028.36,687.818 1023.66,691.065C1020.74,693.08 1015.61,694.205 1005.41,701.379C1002.3,703.568 998.587,706.109 994.113,709.067C978.023,719.708 977.577,747.826 981.7,782.13C991.014,859.613 1097.22,833.548 1084.59,977.449C1077.88,1053.83 1066.03,1010.29 1035.22,1003.59C846.84,962.597 870.045,1288.33 962.2,1301.61C1030.57,1311.46 807.945,1316.85 1190.02,1326.14C1238.86,1327.32 1077.43,1327.15 1230.17,1286.71C1313.06,1264.76 1418.34,1200.35 1524.48,1293.6C1630.63,1386.85 1633.67,1090.19 1641.86,1115.62C1650.06,1141.05 1856.32,1113.64 1856.32,1113.64L1975.14,1080.53L1978.77,308.758L1959.83,-53.826L836.318,-62.295Z" style="fill:rgb(227,227,227);"/>
    </g>
    <path d="M-32.921,863.661C121.455,799.307 93.778,762.251 166.022,805.348C238.265,848.445 274.504,852.007 285.924,900.054C297.344,948.1 292.16,955.03 323.449,980.084C354.739,1005.14 365.914,1003.47 417.9,1018.66C469.886,1033.85 477.764,1017.01 487.398,1061.12C497.032,1105.24 513.095,1127.69 487.918,1186C462.742,1244.3 428.268,1264.68 328.501,1274.6C228.734,1284.52 189.576,1298.03 114.342,1291.38C39.108,1284.72 73.633,1308.87 2.267,1277.34C-69.099,1245.8 -61.629,1348.75 -72.752,1237.77C-83.876,1126.79 -81.713,1213.11 -83.958,1099.81C-86.203,986.513 -187.297,928.016 -32.921,863.661Z" style="fill:rgb(227,227,227);"/>
</svg>
