<svg xmlns="http://www.w3.org/2000/svg" width="1498.869" height="1116.834" viewBox="0 0 1498.869 1116.834">
  <defs>
    <style>
      .cls-1 {
        fill: #877dfe;
        fill-rule: evenodd;
      }
    </style>
  </defs>
  <path id="Path_95" data-name="Path 95" class="cls-1" d="M-155.679,264.339S69.937,484.717,83.762,509.7,110.715,589.99,110,626.976,73.493,770.153,91.971,820.385s61.816,92.1,91.959,105.725c72.009,32.54,175.625-5.915,211.517-14.129,56.661-12.966,99.934,48.362,141.5,82.232,51.127,41.657,170.414-52.113,240.582-46.424,49.957,4.05,120.252,79.041,241.058,68.681,74.27-6.37,214.625,25.208,238.775,63.2s61.093,275.786,43.523,295.956-584.935-20.962-658.646-23.212-374.3-35.063-438.131-43.523-267.291-60.745-311.455-66.735S-193.4,911.981-193.4,911.981Z" transform="translate(193.398 -264.339)"/>
</svg>
