<svg xmlns="http://www.w3.org/2000/svg" width="1323.319" height="805.302" viewBox="0 0 1323.319 805.302">
  <path id="home-page-swirl" data-name="home-page-swirl" d="M-41.96,381.807S69.937,484.717,83.762,509.7,110.715,589.99,110,626.976,73.493,770.153,91.971,820.385s61.816,92.1,91.959,105.725c72.009,32.54,175.625-5.915,211.517-14.129,56.661-12.966,99.934,48.362,141.5,82.232,51.127,41.657,170.414-52.113,240.582-46.424,49.957,4.05,120.252,79.041,241.058,68.681,74.27-6.37,170.77,22.4,194.92,60.39s-136.65,56.2-154.22,76.37-338.451,29.93-412.162,27.68-280.917,11.94-344.744,3.48S79.568,1160.79,35.4,1154.8s-142.748-100.52-142.748-100.52Z" transform="translate(107.344 -381.807)" fill="#877dfe" fill-rule="evenodd"/>
</svg>
