<svg xmlns="http://www.w3.org/2000/svg" width="1155.72" height="664.947" viewBox="0 0 1155.72 664.947">
  <g id="Group_76" data-name="Group 76" transform="matrix(-1, 0.001, -0.001, -1, 725.516, 1310.266)">
    <path id="Path_96" data-name="Path 96" d="M-325.592,792.814c215.948-52.085,456.772-175.886,557.83-141.005s151.749,37.763,167.724,76.65,8.723,44.495,52.491,64.772,59.4,18.927,132.122,31.221,83.74-1.335,97.217,34.365,66.348,328.4,31.129,375.594,10.976,26.721-128.582,34.749-398.751,45.733-503.991,40.351S-34.474,1218.855-134.3,1193.336s-80.125-35-95.685-124.817S-351.558,1055.7-354.7,964-541.539,844.9-325.592,792.814Z" fill="#e3e3e3" fill-rule="evenodd"/>
  </g>
</svg>
