<svg xmlns="http://www.w3.org/2000/svg" width="49.996" height="32.738" viewBox="0 0 49.996 32.738">
  <g id="Poland" transform="translate(-71.42 -124.581)">
    <g id="Group_74" data-name="Group 74" transform="translate(66.123 119.258)">
      <g id="Path_92" data-name="Path 92" fill="#fff" stroke-linecap="round" stroke-linejoin="round" stroke-miterlimit="1.5" fill-rule="evenodd">
        <path d="M 55.04310989379883 22.64312171936035 L 5.580271244049072 22.64312171936035 L 5.580271244049072 14.18493270874023 C 5.580271244049072 9.436482429504395 9.174671173095703 5.573342323303223 13.59278106689453 5.573342323303223 L 47.11643218994141 5.573342323303223 C 51.48722076416016 5.573342323303223 55.04310989379883 9.395212173461914 55.04310989379883 14.09293270111084 L 55.04310989379883 22.64312171936035 Z" stroke="none"/>
        <path d="M 13.59278106689453 5.823343276977539 C 9.312519073486328 5.823343276977539 5.830268859863281 9.574333190917969 5.830268859863281 14.18493270874023 L 5.830268859863281 22.39312362670898 L 54.79310989379883 22.39312362670898 L 54.79310989379883 14.09293270111084 C 54.79310989379883 9.533061981201172 51.34936904907227 5.823343276977539 47.11642837524414 5.823343276977539 L 13.59278106689453 5.823343276977539 M 13.59278106689453 5.323343276977539 L 47.11642837524414 5.323343276977539 C 51.62923812866211 5.323343276977539 55.29310989379883 9.252862930297852 55.29310989379883 14.09293270111084 L 55.29310989379883 22.89312362670898 L 5.330268859863281 22.89312362670898 L 5.330268859863281 14.18493270874023 C 5.330268859863281 9.294101715087891 9.032577514648438 5.323343276977539 13.59278106689453 5.323343276977539 Z" stroke="none"/>
      </g>
    </g>
    <g id="Group_75" data-name="Group 75" transform="translate(66.086 135.699)">
      <path id="Path_93" data-name="Path 93" d="M55.329,5.315h-50v8.233a8.09,8.09,0,0,0,8.1,8.073H47.077a8.243,8.243,0,0,0,8.252-8.226Z" fill="#d66060" fill-rule="evenodd"/>
    </g>
  </g>
</svg>
