<?xml version="1.0" encoding="UTF-8" standalone="no"?>
<!DOCTYPE svg PUBLIC "-//W3C//DTD SVG 1.1//EN" "http://www.w3.org/Graphics/SVG/1.1/DTD/svg11.dtd">
<svg width="100%" height="100%" viewBox="0 0 800 600" version="1.1" xmlns="http://www.w3.org/2000/svg" xmlns:xlink="http://www.w3.org/1999/xlink" xml:space="preserve" xmlns:serif="http://www.serif.com/" style="fill-rule:evenodd;clip-rule:evenodd;stroke-linejoin:round;stroke-miterlimit:2;">
    <g transform="matrix(0.83026,-0.929767,1.04073,0.929345,-255.029,580.136)">
        <path d="M487.827,109.599L500.552,289.15L517.517,288.53L510.63,78.412L487.827,109.599Z" style="fill:rgb(73,70,70);"/>
    </g>
    <g transform="matrix(0.83026,-0.929767,1.04073,0.929345,-255.029,580.136)">
        <path d="M517.199,288.483L536.863,288.215L536.102,104.908L510.614,78.295" style="fill:rgb(138,135,135);"/>
    </g>
    <g transform="matrix(0.535039,-0.63366,0.779304,0.658015,-57.6372,473.773)">
        <rect x="493.078" y="356.547" width="44.365" height="78.597" style="fill:rgb(97,118,248);"/>
    </g>
    <g transform="matrix(0.702155,-0.81727,0.865265,0.743391,-97.7229,299.179)">
        <path d="M245.28,418.688L352.84,418.54L361.966,431.114L354.367,441.992L246.738,442.528L236.339,430.369L245.28,418.688Z" style="fill:rgb(73,70,70);"/>
    </g>
    <g transform="matrix(0.387335,-0.449677,0.757674,0.652633,46.9345,228.963)">
        <path d="M337.775,523.47C337.775,521.168 334.626,519.299 330.747,519.299L268.399,519.299C264.52,519.299 261.371,521.168 261.371,523.47L261.371,531.812C261.371,534.114 264.52,535.983 268.399,535.983L330.747,535.983C334.626,535.983 337.775,534.114 337.775,531.812L337.775,523.47Z" style="fill:rgb(73,70,70);"/>
    </g>
    <g transform="matrix(0.770118,0.980163,-1.09714,0.862025,208.807,-393.672)">
        <path d="M487.827,109.599L500.552,289.15L517.517,288.53L510.63,78.412L487.827,109.599Z" style="fill:rgb(73,70,70);"/>
    </g>
    <g transform="matrix(0.770118,0.980163,-1.09714,0.862025,208.807,-393.672)">
        <path d="M517.199,288.483L536.863,288.215L536.102,104.908L510.614,78.295" style="fill:rgb(138,135,135);"/>
    </g>
    <g transform="matrix(0.530246,0.637677,-0.784244,0.65212,277.644,-182.355)">
        <rect x="493.078" y="356.547" width="44.365" height="78.597" style="fill:rgb(97,118,248);"/>
    </g>
    <g transform="matrix(0.681775,0.834347,-0.883345,0.721814,457.899,-189.624)">
        <path d="M245.28,418.688L352.84,418.54L361.966,431.114L354.367,441.992L246.738,442.528L236.339,430.369L245.28,418.688Z" style="fill:rgb(73,70,70);"/>
    </g>
    <g transform="matrix(0.374951,0.460054,-0.775159,0.631766,500.35,-36.2738)">
        <path d="M337.775,523.47C337.775,521.168 334.626,519.299 330.747,519.299L268.399,519.299C264.52,519.299 261.371,521.168 261.371,523.47L261.371,531.812C261.371,534.114 264.52,535.983 268.399,535.983L330.747,535.983C334.626,535.983 337.775,534.114 337.775,531.812L337.775,523.47Z" style="fill:rgb(73,70,70);"/>
    </g>
</svg>
